<?xml version="1.0" encoding="UTF-8" standalone="no"?>
<!-- Created with Inkscape (http://www.inkscape.org/) -->

<svg
   xmlns:dc="http://purl.org/dc/elements/1.1/"
   xmlns:cc="http://creativecommons.org/ns#"
   xmlns:rdf="http://www.w3.org/1999/02/22-rdf-syntax-ns#"
   xmlns:svg="http://www.w3.org/2000/svg"
   xmlns="http://www.w3.org/2000/svg"
   version="1.1"
   width="593.5"
   height="603.11249"
   id="svg3004"
   xml:space="preserve"><metadata
     id="metadata3010"><rdf:RDF><cc:Work
         rdf:about=""><dc:format>image/svg+xml</dc:format><dc:type
           rdf:resource="http://purl.org/dc/dcmitype/StillImage" /><dc:title></dc:title></cc:Work></rdf:RDF></metadata><defs
     id="defs3008"><clipPath
       id="clipPath3020"><path
         d="M 0,4824.86 0,0 l 4747.99,0 0,4824.86 -4747.99,0 z"
         id="path3022" /></clipPath></defs><g
     transform="matrix(1.25,0,0,-1.25,0,603.1125)"
     id="g3012"><g
       transform="scale(0.1,0.1)"
       id="g3014"><g
         id="g3016"><g
           clip-path="url(#clipPath3020)"
           id="g3018"><path
             d="m 905.898,334.941 c 0,-17.441 2.723,-33.562 8.145,-48.421 5.398,-14.821 13.293,-27.79 23.66,-38.848 10.356,-11.07 22.727,-19.781 37.109,-26.152 14.348,-6.348 30.468,-9.551 48.378,-9.551 17.89,0 34.05,3.203 48.41,9.551 14.39,6.371 26.74,15.082 37.12,26.152 10.35,11.058 18.21,24.027 23.65,38.848 5.43,14.859 8.13,30.98 8.13,48.421 0,17.438 -2.7,33.547 -8.13,48.418 -5.44,14.821 -13.3,27.77 -23.65,38.84 -10.38,11.063 -22.73,19.789 -37.12,26.141 -14.36,6.359 -30.52,9.551 -48.41,9.551 -17.91,0 -34.03,-3.192 -48.378,-9.551 -14.382,-6.352 -26.753,-15.078 -37.109,-26.141 -10.367,-11.07 -18.262,-24.019 -23.66,-38.84 -5.422,-14.871 -8.145,-30.98 -8.145,-48.418 z m -55.117,165.348 55.117,0 0,-48.051 1.438,0 c 15.035,17.891 32.598,31.801 52.625,41.684 20.051,9.887 42.039,14.848 66.079,14.848 25.91,0 49.58,-4.36 71.01,-13.071 21.43,-8.75 39.67,-20.859 54.77,-36.41 15.06,-15.519 26.84,-33.898 35.32,-55.109 8.49,-21.2 12.7,-44.282 12.7,-69.239 0,-24.98 -4.21,-48.05 -12.7,-69.261 -8.48,-21.192 -20.14,-39.571 -34.95,-55.121 -14.89,-15.539 -32.4,-27.668 -52.68,-36.379 -20.23,-8.711 -41.92,-13.071 -64.97,-13.071 -29.7,0 -55.731,6.481 -78.102,19.411 -22.376,12.949 -38.782,28.871 -49.102,47.718 l -1.438,0 0,-219.76925 -55.117,0 0,491.82025"
             id="path3024"
             style="fill:#231f20;fill-opacity:1;fill-rule:nonzero;stroke:none" /><path
             d="m 1290.28,500.289 55.12,0 0,-330.699 -55.12,0 0,330.699 z m -12.69,129.301 c 0,10.84 3.87,20.25 11.64,28.262 7.79,8.007 17.35,12.027 28.61,12.027 11.35,0 20.85,-4.02 28.64,-12.027 7.75,-8.012 11.63,-17.422 11.63,-28.262 0,-11.762 -3.76,-21.449 -11.27,-28.969 -7.53,-7.543 -17.21,-11.293 -29,-11.293 -11.78,0 -21.44,3.75 -28.96,11.293 -7.53,7.52 -11.29,17.207 -11.29,28.969"
             id="path3026"
             style="fill:#231f20;fill-opacity:1;fill-rule:nonzero;stroke:none" /><path
             d="m 1635.83,453.648 -97.51,0 0,-165.347 c 0,-10.86 0.23,-20.86 0.72,-30.039 0.42,-9.184 2.31,-17.192 5.64,-24.032 3.31,-6.808 8.22,-12.242 14.83,-16.25 6.6,-3.98 16.02,-6.011 28.27,-6.011 8.03,0 16.24,0.941 24.72,2.851 8.47,1.86 16.49,4.692 24.05,8.461 l 2.12,-50.16 c -9.46,-4.242 -19.93,-7.301 -31.45,-9.18 -11.56,-1.89 -22.52,-2.832 -32.87,-2.832 -19.77,0 -35.59,2.602 -47.35,7.77 -11.76,5.18 -20.96,12.461 -27.56,21.902 -6.59,9.43 -10.93,21.09 -13.04,34.981 -2.14,13.886 -3.2,29.308 -3.2,46.289 l 0,181.597 -72.09,0 0,46.641 72.09,0 0,93.961 55.12,0 0,-93.961 97.51,0 0,-46.641"
             id="path3028"
             style="fill:#231f20;fill-opacity:1;fill-rule:nonzero;stroke:none" /><path
             d="m 1951.7,364.629 c -0.97,28.262 -10.14,50.851 -27.58,67.832 -17.44,16.949 -41.45,25.43 -72.07,25.43 -30.61,0 -55.35,-8.481 -74.18,-25.43 -18.85,-16.981 -30.18,-39.57 -33.94,-67.832 l 207.77,0 z m 47.32,-134.981 c -19.76,-25.429 -41.45,-43.226 -65,-53.359 -23.56,-10.117 -50.89,-15.18 -81.97,-15.18 -25.92,0 -49.25,4.59 -69.93,13.77 -20.72,9.18 -38.31,21.562 -52.66,37.09 -14.38,15.57 -25.44,33.941 -33.23,55.14 -7.74,21.192 -11.65,43.801 -11.65,67.832 0,25.45 4.23,48.868 12.73,70.289 8.47,21.45 20.26,39.829 35.36,55.141 15.02,15.27 32.93,27.188 53.68,35.66 20.7,8.5 43.31,12.739 67.84,12.739 23.08,0 44.25,-3.911 63.59,-11.68 19.3,-7.738 35.92,-19.07 49.81,-33.91 13.9,-14.84 24.61,-32.969 32.17,-54.41 7.51,-21.45 11.3,-45.801 11.3,-73.129 l 0,-17.672 -267.13,0 c 0.96,-14.129 4.36,-27.68 10.26,-40.61 5.89,-12.988 13.54,-24.281 22.98,-33.929 9.41,-9.66 20.5,-17.321 33.19,-22.961 12.73,-5.649 26.62,-8.5 41.69,-8.5 24.03,0 44.27,4.261 60.77,12.73 16.47,8.481 31.32,20.942 44.51,37.461 l 41.69,-32.512"
             id="path3030"
             style="fill:#231f20;fill-opacity:1;fill-rule:nonzero;stroke:none" /><path
             d="m 2103.6,256.5 c 10.84,-13.672 22.75,-24.512 35.69,-32.5 12.95,-8.012 29.33,-12.031 49.1,-12.031 8.48,0 17.07,0.941 25.8,2.851 8.71,1.86 16.62,4.918 23.69,9.18 7.06,4.238 12.72,9.531 16.94,15.898 4.23,6.352 6.34,14 6.34,22.973 0,8.918 -1.97,16.25 -5.98,21.891 -4.02,5.648 -9.3,10.468 -15.89,14.468 -6.62,4.032 -14.14,7.211 -22.64,9.559 -8.45,2.359 -17.18,4.473 -26.15,6.359 -15.54,3.301 -30.37,7.051 -44.5,11.313 -14.12,4.238 -26.53,9.769 -37.06,16.598 -10.65,6.82 -19.1,15.671 -25.47,26.511 -6.37,10.821 -9.56,24.719 -9.56,41.68 0,16.012 3.54,30.129 10.61,42.398 7.06,12.25 16.48,22.364 28.28,30.391 11.74,8.012 24.93,14.141 39.55,18.383 14.58,4.238 29.68,6.348 45.22,6.348 23.57,0 45.35,-4.711 65.4,-14.141 19.98,-9.438 35.65,-24.731 46.94,-45.918 L 2264,418.32 c -7.07,11.77 -16.35,21.309 -27.91,28.61 -11.55,7.3 -25.56,10.961 -42.02,10.961 -7.56,0 -15.23,-0.961 -22.98,-2.821 -7.77,-1.89 -14.74,-4.718 -20.85,-8.511 -6.12,-3.75 -11.19,-8.579 -15.18,-14.45 -4,-5.898 -6.04,-12.621 -6.04,-20.14 0,-7.071 2.24,-13.09 6.71,-18.028 4.49,-4.941 10.65,-9.312 18.41,-13.062 7.77,-3.789 16.72,-7.07 26.86,-9.91 10.11,-2.828 20.58,-5.188 31.43,-7.071 14.6,-2.808 28.5,-6.476 41.71,-10.929 13.15,-4.5 24.7,-10.489 34.6,-18.028 9.88,-7.562 17.66,-16.972 23.31,-28.261 5.64,-11.309 8.48,-25.219 8.48,-41.7 0,-18.832 -3.76,-34.871 -11.29,-48.05 -7.56,-13.2 -17.56,-23.91 -30.05,-32.129 -12.46,-8.262 -26.62,-14.281 -42.39,-18.051 -15.77,-3.75 -31.91,-5.641 -48.41,-5.641 -28.26,0 -52.66,4.36 -73.1,13.071 -20.51,8.711 -39.01,24.84 -55.5,48.41 l 43.81,33.91"
             id="path3032"
             style="fill:#231f20;fill-opacity:1;fill-rule:nonzero;stroke:none" /><path
             d="m 2578.44,453.648 -97.51,0 0,-165.347 c 0,-10.86 0.23,-20.86 0.7,-30.039 0.47,-9.184 2.37,-17.192 5.66,-24.032 3.31,-6.808 8.27,-12.242 14.86,-16.25 6.57,-3.98 16,-6.011 28.24,-6.011 8.03,0 16.26,0.941 24.77,2.851 8.44,1.86 16.45,4.692 23.99,8.461 l 2.13,-50.16 c -9.43,-4.242 -19.9,-7.301 -31.46,-9.18 -11.52,-1.89 -22.51,-2.832 -32.84,-2.832 -19.8,0 -35.58,2.602 -47.36,7.77 -11.79,5.18 -20.97,12.461 -27.56,21.902 -6.58,9.43 -10.95,21.09 -13.06,34.981 -2.12,13.886 -3.17,29.308 -3.17,46.289 l 0,181.597 -72.09,0 0,46.641 72.09,0 0,93.961 55.1,0 0,-93.961 97.51,0 0,-46.641"
             id="path3034"
             style="fill:#231f20;fill-opacity:1;fill-rule:nonzero;stroke:none" /><path
             d="m 2699.29,250.148 c 11.77,0 21.75,-4.136 30.02,-12.378 8.24,-8.239 12.37,-18.258 12.37,-30.02 0,-11.801 -4.37,-21.82 -13.08,-30.039 -8.71,-8.242 -18.49,-12.383 -29.31,-12.383 -10.87,0 -20.62,4.141 -29.35,12.383 -8.68,8.219 -13.05,18.238 -13.05,30.039 0,11.762 4.11,21.781 12.35,30.02 8.24,8.242 18.26,12.378 30.05,12.378"
             id="path3036"
             style="fill:#231f20;fill-opacity:1;fill-rule:nonzero;stroke:none" /><path
             d="m 2854.74,334.941 c 0,-17.441 2.69,-33.562 8.11,-48.421 5.4,-14.821 13.31,-27.79 23.66,-38.848 10.38,-11.07 22.73,-19.781 37.12,-26.152 14.37,-6.348 30.49,-9.551 48.4,-9.551 17.91,0 34.01,3.203 48.39,9.551 14.38,6.371 26.73,15.082 37.11,26.152 10.35,11.058 18.26,24.027 23.66,38.848 5.42,14.859 8.15,30.98 8.15,48.421 0,17.438 -2.73,33.547 -8.15,48.418 -5.4,14.821 -13.31,27.77 -23.66,38.84 -10.38,11.063 -22.73,19.789 -37.11,26.141 -14.38,6.359 -30.48,9.551 -48.39,9.551 -17.91,0 -34.03,-3.192 -48.4,-9.551 -14.39,-6.352 -26.74,-15.078 -37.12,-26.141 -10.35,-11.07 -18.26,-24.019 -23.66,-38.84 -5.42,-14.871 -8.11,-30.98 -8.11,-48.418 z m -59.38,0 c 0,25.899 4.46,49.469 13.41,70.661 8.96,21.187 21.22,39.457 36.76,54.769 15.59,15.27 34.16,27.188 55.85,35.66 21.66,8.5 45.21,12.739 70.65,12.739 25.45,0 49,-4.239 70.68,-12.739 21.65,-8.472 40.27,-20.39 55.81,-35.66 15.53,-15.312 27.81,-33.582 36.73,-54.769 8.92,-21.192 13.43,-44.762 13.43,-70.661 0,-25.921 -4.51,-49.472 -13.43,-70.671 -8.92,-21.192 -21.2,-39.45 -36.73,-54.758 -15.54,-15.313 -34.16,-27.211 -55.81,-35.672 -21.68,-8.512 -45.23,-12.731 -70.68,-12.731 -25.44,0 -48.99,4.219 -70.65,12.731 -21.69,8.461 -40.26,20.359 -55.85,35.672 -15.54,15.308 -27.8,33.566 -36.76,54.758 -8.95,21.199 -13.41,44.75 -13.41,70.671"
             id="path3038"
             style="fill:#231f20;fill-opacity:1;fill-rule:nonzero;stroke:none" /><path
             d="m 3234.17,421.828 c 0,15.082 -0.47,29.203 -1.39,42.402 -0.95,13.192 -1.42,25.219 -1.42,36.059 l 52.27,0 c 0,-8.969 0.26,-17.91 0.73,-26.859 0.44,-8.942 0.68,-18.141 0.68,-27.551 l 1.43,0 c 3.75,8 9.07,15.781 15.89,23.32 6.83,7.531 14.95,14.231 24.39,20.153 9.41,5.859 20.06,10.589 31.79,14.097 11.78,3.563 24.48,5.321 38.17,5.321 3.78,0 7.54,-0.239 11.29,-0.711 3.75,-0.5 7.54,-1.399 11.34,-2.829 l -3.57,-55.82 c -9.41,2.828 -19.3,4.238 -29.68,4.238 -33.89,0 -58.51,-10.957 -73.81,-32.847 -15.34,-21.922 -22.97,-51.961 -22.97,-90.102 l 0,-161.109 -55.14,0 0,252.238"
             id="path3040"
             style="fill:#231f20;fill-opacity:1;fill-rule:nonzero;stroke:none" /><path
             d="m 3510.49,334.941 c 0,-16.972 3.05,-32.621 9.15,-46.992 6.13,-14.398 14.51,-26.859 25.1,-37.449 10.6,-10.602 22.96,-18.98 37.11,-25.09 14.14,-6.121 29.19,-9.18 45.21,-9.18 18.83,0 35.57,3.282 50.17,9.879 14.6,6.602 26.97,15.411 37.11,26.5 10.11,11.082 17.79,23.77 22.97,38.153 5.17,14.367 7.76,29.566 7.76,45.578 0,17.91 -2.82,34.281 -8.48,49.129 -5.65,14.84 -13.66,27.652 -24.04,38.492 -10.35,10.84 -22.83,19.219 -37.44,25.098 -14.6,5.882 -30.63,8.832 -48.05,8.832 -17.44,0 -33.36,-3.192 -47.69,-9.551 -14.38,-6.352 -26.66,-15.078 -36.74,-26.141 -10.12,-11.07 -18.03,-24.019 -23.67,-38.84 -5.68,-14.871 -8.47,-30.98 -8.47,-48.418 z m 289.7,-150.511 c 0,-60.289 -15.45,-106.1097 -46.29,-137.4417 C 3723.05,15.6797 3678.4,0 3619.99,0 c -32.48,0 -61.83,4.69922 -87.98,14.1406 -26.15,9.4102 -50.98,25.6797 -74.53,48.75 l 39.56,45.2304 c 17.41,-18.8515 35.91,-33.1015 55.49,-42.7499 19.53,-9.6719 42.02,-14.4922 67.46,-14.4922 24.49,0 44.86,3.6523 61.13,10.9492 16.24,7.3125 29.09,17.1914 38.5,29.6719 9.43,12.5 16.01,26.762 19.78,42.75 3.79,16.02 5.67,32.762 5.67,50.18 l 0,42.398 -1.44,0 c -13.17,-21.207 -30.35,-36.758 -51.57,-46.637 -21.17,-9.902 -42.86,-14.863 -65,-14.863 -25.92,0 -49.7,4.262 -71.34,12.731 -21.69,8.5 -40.3,20.261 -55.85,35.339 -15.53,15.071 -27.58,32.961 -36.03,53.711 -8.47,20.719 -12.72,43.34 -12.72,67.832 0,26.848 4.25,51.11 12.72,72.77 8.45,21.68 20.38,39.937 35.68,54.769 15.31,14.84 33.78,26.25 55.47,34.27 21.67,8.012 45.66,12.02 72.07,12.02 11.31,0 22.61,-1.29 33.93,-3.911 11.3,-2.558 22.24,-6.597 32.83,-11.988 10.63,-5.43 20.16,-12.269 28.64,-20.492 8.48,-8.258 15.54,-17.789 21.17,-28.609 l 1.44,0 0,56.519 55.12,0 0,-315.859"
             id="path3042"
             style="fill:#231f20;fill-opacity:1;fill-rule:nonzero;stroke:none" /><path
             d="m 3085.76,2240.16 c -56.1,-83.53 -122.19,-160.29 -194.12,-230.97 -72.53,-70.15 -152.43,-132.7 -237.31,-187.46 -170.37,-108.86 -363.29,-181.38 -562.03,-213.28 -198.09,-32.26 -403.06,-23.61 -594.14,29.26 196.63,-24.41 394.12,-17.07 584.45,23.85 189.81,40.55 371.61,114.89 534.6,218.52 81.91,51.27 158.47,110.93 229.53,176.57 71.58,65.19 136.11,137.92 195.33,214.89 117.55,154.85 207.95,330.84 269.36,519.15 -33.55,-195.45 -112.42,-384.51 -225.67,-550.53 z m 1215.7,1662.14 446.53,0 c -27.53,73.47 -93.09,128.34 -172.7,140.68 6.17,7.72 10.02,17.37 10.02,27.97 l 0,189.79 c 0,24.85 -20.33,45.18 -45.17,45.18 l -74.57,0 c -24.86,0 -45.18,-20.33 -45.18,-45.18 l 0,-28.95 -64.66,0 c -132.95,346.42 -468.88,593.07 -861.53,593.07 -488.26,0 -888.92,-381.33 -920.35,-861.79 l 1109.99,-60.78 -897.47,-49.15 C 2680.94,3288.8 2376.68,2804.65 1948.46,2454.39 L 572.605,1491.03 3.64453,1092.63 0,1090.07 31.9727,1044.41 C 143.398,885.289 362.715,846.621 521.836,958.039 L 1015.03,1303.4 c 291.47,-214.99 651.65,-342.15 1041.6,-342.15 970.25,0 1756.82,786.56 1756.82,1756.82 0,72.19 -4.46,144.37 -13.26,216.01 -7.86,63.85 -19.43,127.38 -11.84,191.92 9.78,83.15 49.74,175.26 141.12,191.09 0.02,0.11 0,0.22 0.02,0.33 l 389.42,67.69 c 0.24,-0.14 0.48,-0.25 0.76,-0.41 -0.2,0.14 -0.39,0.3 -0.6,0.44 l 0.36,0.06 -2.11,1.22 c -5.53,3.83 -10.98,7.79 -16.28,11.91 -5.22,4.03 -10.3,8.21 -15.29,12.55 -29.71,25.78 -55.12,56.41 -74.99,90.63 -0.18,0.29 -0.35,0.6 -0.54,0.9 -3.09,5.38 -6.05,10.84 -8.87,16.39 -0.19,0.35 -0.35,0.69 -0.54,1.04 -14.8,29.32 -25.68,60.94 -31.94,94.21 -0.12,0.61 -0.22,1.21 -0.33,1.81 -1.08,5.95 -2.04,11.95 -2.82,18 -0.11,0.83 -0.21,1.68 -0.31,2.52 -0.74,6 -1.33,12.05 -1.78,18.14 -0.05,0.73 -0.11,1.43 -0.16,2.16 -0.44,6.72 -0.72,13.49 -0.79,20.31 -0.01,1.18 -0.09,2.33 -0.09,3.51 0,8.09 0.36,16.09 0.91,24.04 0.11,1.89 0.26,3.77 0.42,5.65 0.63,7.73 1.44,15.41 2.56,22.99 0.02,0.11 0.02,0.23 0.05,0.35 1.22,8.16 2.77,16.21 4.52,24.2 0.24,1.03 0.49,2.07 0.73,3.12 1.77,7.75 3.77,15.4 6.09,23.13 l -1.72,1.68 c 6.45,37.94 9.98,76.87 9.98,116.64 l 115.33,0"
             id="path3044"
             style="fill:#231f20;fill-opacity:1;fill-rule:nonzero;stroke:none" /></g></g></g></g></svg>